<?xml version="1.0" encoding="UTF-8"?>
<svg id="a" data-name="Layer 1" xmlns="http://www.w3.org/2000/svg" xmlns:xlink="http://www.w3.org/1999/xlink" viewBox="0 0 187 60">
  <defs>
    <linearGradient id="b" data-name="Sky" x1="1" y1="27.647872" x2="45.756086" y2="27.647872" gradientUnits="userSpaceOnUse">
      <stop offset="0" stop-color="#cce0f4"/>
      <stop offset=".064051" stop-color="#c2dcf2"/>
      <stop offset=".170632" stop-color="#a9d2ee"/>
      <stop offset=".306555" stop-color="#7fc2e7"/>
      <stop offset=".464866" stop-color="#46abdd"/>
      <stop offset=".567416" stop-color="#1e9cd7"/>
      <stop offset=".865168" stop-color="#0075be"/>
      <stop offset=".994382" stop-color="#005b97"/>
    </linearGradient>
    <linearGradient id="c" data-name="Sky" x1="4.641977" y1="13.507312" x2="22.642689" y2="13.507312" xlink:href="#b"/>
    <linearGradient id="d" data-name="Sky" x1="31.125616" y1="33.453891" x2="33.402083" y2="33.453891" xlink:href="#b"/>
    <linearGradient id="e" data-name="Sky" x1="37.310809" y1="27.128407" x2="39.947485" y2="27.128407" xlink:href="#b"/>
  </defs>
  <g>
    <path d="M65.598633,30.966797h-12.382812v7.741211c0,.31543,.076172,.558594,.228516,.732422,.151367,.172852,.411133,.306641,.77832,.400391v.503906h-6.702148v-.503906c.376953-.104492,.639648-.241211,.786133-.408203,.147461-.167969,.220703-.40918,.220703-.724609V20.503906c0-.314453-.073242-.555664-.220703-.723633-.146484-.167969-.40918-.304688-.786133-.40918v-.503906h6.702148v.503906c-.376953,.094727-.639648,.228516-.786133,.401367-.147461,.172852-.220703,.416992-.220703,.731445v6.922852h12.382812v-6.922852c0-.314453-.073242-.558594-.219727-.731445-.147461-.172852-.40918-.306641-.787109-.401367v-.503906h6.703125v.503906c-.37793,.104492-.640625,.241211-.787109,.40918s-.219727,.40918-.219727,.723633v18.204102c0,.31543,.073242,.556641,.219727,.724609,.146484,.166992,.40918,.303711,.787109,.408203v.503906h-6.703125v-.503906c.367188-.09375,.626953-.227539,.779297-.400391,.151367-.173828,.227539-.416992,.227539-.732422v-7.741211Z" fill="#0071bc"/>
    <path d="M90.898438,34.869141h-9.761719l-1.445312,3.021484c-.199219,.418945-.298828,.75-.298828,.991211,0,.460938,.350586,.78125,1.051758,.958984v.503906h-7.103516v-.503906c.418945-.083008,.739258-.230469,.959961-.44043,.219727-.208984,.47168-.618164,.754883-1.226562l7.898438-16.505859c.251953-.524414,.37793-.943359,.37793-1.258789,0-.482422-.304688-.828125-.913086-1.038086v-.503906h7.615234v.503906c-.618164,.178711-.927734,.487305-.927734,.928711,0,.303711,.099609,.650391,.298828,1.038086l8.181641,16.552734c.34668,.702148,.650391,1.182617,.913086,1.439453,.261719,.256836,.613281,.427734,1.053711,.510742v.503906h-7.90625v-.503906c.694336-.115234,1.041992-.44043,1.041992-.975586,0-.219727-.105469-.544922-.31543-.974609l-1.475586-3.021484Zm-1.348633-2.942383l-3.483398-7.650391-3.539062,7.650391h7.022461Z" fill="#0071bc"/>
    <path d="M102.385742,38.692383V20.503906c0-.314453-.073242-.555664-.220703-.723633-.146484-.167969-.40918-.304688-.786133-.40918v-.503906h6.702148v.503906c-.376953,.094727-.639648,.228516-.786133,.401367-.147461,.172852-.220703,.416992-.220703,.731445v18.188477c0,.325195,.076172,.574219,.228516,.748047,.151367,.172852,.411133,.306641,.77832,.400391v.503906h-6.702148v-.503906c.376953-.104492,.639648-.241211,.786133-.408203,.147461-.167969,.220703-.415039,.220703-.740234Z" fill="#0071bc"/>
    <path d="M118.900391,36.804688h11.176758c.314453,0,.556641-.073242,.724609-.220703,.167969-.146484,.303711-.40918,.40918-.786133h.50293v5.553711h-.50293c-.105469-.37793-.241211-.639648-.40918-.786133-.167969-.147461-.40918-.220703-.723633-.220703h-18.787109v-1.101562l12.490234-16.835938h-10.744141c-.325195,0-.571289,.072266-.739258,.216797-.167969,.143555-.303711,.407227-.40918,.791016h-.50293v-5.554688h.50293c.115234,.382812,.254883,.645508,.416992,.790039,.163086,.144531,.407227,.216797,.732422,.216797h18.50293v.897461l-12.640625,17.040039Z" fill="#0071bc"/>
  </g>
  <path d="M141.226841,19.169278h6.195223v.960913c-.07051,.00438-.127565,.010936-.184629,.011004-.594392,.000709-1.188807,.002968-1.783149-.002291-.095993-.000849-.116064,.024402-.115711,.112503,.00331,.827013,.003786,1.654053-.000442,2.481059-.000554,.108188,.036627,.133451,.142777,.132848,.726472-.004123,1.45323-.013226,2.179382,.002077,.408429,.008607,.820986,.032137,1.222687,.099333,.775752,.129768,1.510149,.388837,2.19766,.764842,.746859,.408462,1.40137,.927896,1.954352,1.56136,.444332,.509,.810284,1.068254,1.082901,1.683229,.277616,.626253,.473789,1.272371,.540895,1.952903,.010376,.105222,.032284,.209379,.04886,.314028v.983395c-.008104,.017569-.021003,.034504-.023588,.052804-.034207,.242412-.058593,.486416-.101665,.727304-.127302,.711979-.383298,1.381231-.742453,2.013177-.256436,.451208-.565002,.866791-.917356,1.253966-.428443,.47079-.917869,.870539-1.457868,1.213686-.441142,.280325-.911114,.505976-1.407438,.681155-.740384,.26132-1.502093,.410446-2.291459,.413311-.759753,.002757-1.519538,.00265-2.279277-.001653-.11173-.000632-.14964,.025411-.148808,.139739,.005272,.723346,.002661,1.446745,.00266,2.170127,0,.111904-.000084,.223809,.000123,.335713,.000095,.0515,.002424,.083572,.080387,.082684,.618768-.007059,1.237624-.007244,1.856455-.008118,.046836-.000066,.093688,.010819,.144704,.01713v.958797h-6.195223v-.960874c.046786-.005603,.082552-.013577,.118328-.013619,.606795-.000719,1.213628-.003713,1.820355,.002571,.110339,.001143,.144958-.026332,.144571-.131743-.003018-.823143-.002819-1.646303-.000205-2.469449,.00029-.091207-.023799-.125352-.125388-.123099-.301217,.006689-.602723,.004897-.904066,.001868-.618199-.006213-1.236592-.00805-1.854472-.025801-.449954-.012927-.889564-.105357-1.32142-.22377-.995378-.272933-1.892029-.732953-2.672332-1.388754-.314241-.2641-.602466-.561854-.873785-.868145-.516162-.582694-.902806-1.242979-1.176681-1.964659-.194922-.513633-.334585-1.039306-.391964-1.584675-.010568-.100443-.032067-.199809-.048521-.299673,0-.327798,0-.655597,0-.983395,.016898-.104649,.040989-.208757,.049464-.314042,.039539-.491193,.163167-.96511,.327036-1.428132,.247422-.699105,.604262-1.343392,1.069978-1.931278,.416525-.525791,.897149-.986946,1.447769-1.379954,.479189-.342024,.99465-.622257,1.5472-.83662,.798441-.309757,1.626469-.484917,2.488768-.489165,.768026-.003784,1.536094-.002029,2.304127,.001078,.092251,.000373,.134807-.018566,.134486-.117252-.002713-.835303-.002313-1.670619-.000577-2.505926,.00016-.076906-.028172-.10645-.107619-.106057-.610747,.003022-1.221506,.003815-1.832261,.005274-.04428,.000106-.088559,.000014-.142789,.000014v-.971748Zm4.113551,10.550207c0,1.586829,.000983,3.173658-.002243,4.760481-.000212,.104316,.027277,.133308,.137512,.132436,.701989-.005556,1.40425,.006478,2.105989-.007561,.339529-.006794,.684368-.028074,1.016006-.093821,1.206982-.239282,2.201586-.824982,2.973302-1.761711,.631102-.766053,.983702-1.640116,1.075174-2.609473,.042625-.451705,.023637-.908115-.072626-1.354865-.199226-.924592-.624816-1.736966-1.300266-2.424702-.542555-.552425-1.184204-.955996-1.919475-1.222886-.576702-.209334-1.17692-.296527-1.78956-.30218-.689588-.006363-1.379321,.001915-2.068902-.004763-.127072-.00123-.157996,.031825-.157677,.152553,.004162,1.578823,.002766,3.157661,.002767,4.736495Zm-2.031911,.00268c0-.067946,0-.135892,0-.203838,0-1.510798-.000315-3.021596,.000806-4.532394,.000066-.087895-.000371-.153278-.12657-.152518-.664755,.004005-1.3296-.003743-1.994326,.001981-.442821,.003813-.883107,.035687-1.317086,.136273-1.110151,.257307-2.027236,.816388-2.748486,1.665437-.552563,.65047-.906129,1.39537-1.057307,2.231342-.101198,.559593-.104522,1.118162-.010229,1.673222,.09288,.546742,.281809,1.066159,.567888,1.55201,.391513,.664907,.902852,1.21729,1.555684,1.652432,.884288,.589416,1.865069,.859298,2.930769,.862747,.668938,.002167,1.337892-.001186,2.006839-.000972,.191773,.000061,.19198,.001801,.191987-.185454,.000057-1.566757,.000033-3.133512,.000032-4.700268Z" fill="#0071bc" stroke="#0071bc" stroke-miterlimit="10" stroke-width="1.5"/>
  <path d="M171.021484,40.344727l-7.922852-14.836914v13.18457c0,.325195,.073242,.572266,.220703,.740234,.146484,.166992,.40918,.303711,.787109,.408203v.503906h-6.30957v-.503906c.376953-.104492,.639648-.241211,.786133-.408203,.147461-.167969,.220703-.415039,.220703-.740234V20.503906c0-.314453-.073242-.555664-.220703-.723633-.146484-.167969-.40918-.304688-.786133-.40918v-.503906h8.27832v.503906c-.493164,.125977-.739258,.414062-.739258,.865234,0,.209961,.073242,.451172,.219727,.723633l5.859375,11.102539,5.9375-10.913086c.261719-.482422,.393555-.833984,.393555-1.054688,0-.429688-.262695-.670898-.787109-.723633v-.503906h8.121094v.503906c-.37793,.104492-.640625,.241211-.787109,.40918s-.219727,.40918-.219727,.723633v18.188477c0,.325195,.073242,.572266,.219727,.740234,.146484,.166992,.40918,.303711,.787109,.408203v.503906h-6.703125v-.503906c.367188-.09375,.626953-.227539,.779297-.400391,.151367-.173828,.227539-.422852,.227539-.748047v-13.18457l-8.362305,14.836914Z" fill="#0071bc"/>
  <g>
    <path d="M1.005267,12.158104c-.047536-.489637,.235944-.417621,.477581-.167714,.353241,.365331,.671533,.787196,1.054994,1.143817,.644502,.599392,1.335697,1.148482,2.064595,1.641761,1.457701,.986494,3.066953,1.750232,4.756117,2.246185,.253363,.07439,.508496,.142749,.765131,.204924,2.57525,.623915,5.243088,.633359,7.877003,.594939,2.32032-.033845,5.029449-.401486,7.203406,.58393,1.301112,.589771,2.325908,1.677172,3.076812,2.892436,.437079,.70737,.790428,1.462122,1.107308,2.229785,.158901,.384947,.307819,.773926,.454543,1.163644,.039194,.104105,.391696,.859449,.351431,.945002,.37793-.802978,.293339-1.759365,.059469-2.590233-.125867-.447165-.304039-.881928-.529815-1.287978-.178744-.321464-.509558-.641253-.621839-.990805-.052574-.163674,.066267-.160246,.199268-.174485,.14426-.015441,.289779-.016059,.434661-.019828,.952852-.02479,1.90744-.16202,2.809598-.469677,.852147-.290602,1.851887-.766233,2.445066-1.467769-.065256-.035072-.122484-.011262-.188051,.009543-.473736,.150318-.945793,.306731-1.423382,.443835-.374877,.107618-.753712,.207437-1.136751,.278699-.286581,.053317-.582246,.067211-.874617,.077655-.352457,.01259-.706082,.012762-1.058477-.000672-.215641-.00822-.433992-.034757-.643887-.083925-.331358-.077622-.662046-.165774-.982859-.278391-.282059-.099013-.562237-.216588-.821291-.364412-.298876-.170548-.586625-.3672-.854505-.583142-.185867-.149832-.329989-.351413-.492763-.529874,1.284294,.161714,2.532292,.192957,3.793395-.163719-.044262,.012518-.226172-.123947-.269926-.148353-.093095-.051928-.186034-.104144-.279654-.155124-.183917-.100152-.370497-.196386-.564562-.275535-.388106-.158289-.80425-.235273-1.220207-.154003-.086669,.016933-.172098,.039972-.255767,.068178-.089991,.030337-.182961,.089057-.273919,.107773,.049249-.14887,.238165-.303607,.359924-.396501,.146932-.112099,.31585-.196411,.496716-.236678,.40867-.090984,.830294,.041311,1.228011,.172118,.485389,.159642,.970779,.319284,1.456168,.478926,.112339,.036948,.226532,.074239,.344718,.078396,.194996,.006858,.456146-.124159,.452635-.348676-.001999-.127873-.105323-.23649-.223881-.28444s-.250345-.047587-.378219-.045612c-.736708,.011377-1.49163,.050543-2.192047-.178114-.208121-.067943-.40792-.158717-.602829-.257882-.03502-.017817-.27141-.118326-.256012-.157702,.022067-.056427,.276985,.018468,.3192,.028743,.630427,.153434,1.286967,.179433,1.93407,.132125,.852098-.062295,1.727271-.247783,2.546038-.00371,.189552,.056505,.372157,.135499,.564681,.182351,.155311,.037793,.314941-.003921,.412118-.136879,.007733-.010581,.015139-.022185,.016249-.035244,.001121-.013187-.004334-.025978-.010175-.037853-.042788-.086987-.115163-.160875-.205183-.196846-.088965-.035549-.187869-.032776-.283668-.031644-.536214,.006334-1.070642-.055338-1.603346-.116916-.160348-.018536-.320697-.037071-.481045-.055607-.097351-.011253-.306106-.030688-.33766-.140836,.317657-.032304,.660295,.015972,.981693,.010306,.340035-.005995,.679867-.023449,1.018725-.052347,.608099-.051858,1.244221-.13672,1.810119,.091826,.157429,.06358,.304939,.150109,.463398,.211075,.155792,.05994,.318848,.088235,.484506,.054894,.1123-.022602-.087927-.196239-.120802-.218884-.103568-.071341-.228519-.108982-.348148-.143292-.342182-.09814-.685438-.196046-1.036197-.258986-.345443-.061986-.677185-.03594-1.022008-.059889,.013432-.018269,.031563-.028369,.051567-.040631,.574776-.352315,1.229879-.463669,1.892181-.343566,.535457,.097101,1.040932,.313087,1.541122,.527453,1.34637,.577012,2.692741,1.154023,4.039111,1.731035,.157609,.067546,.32092,.136297,.492387,.134882,.169619-.001399,.330216-.071334,.485418-.140073,.491927-.217895,1.285895-.898935,1.837616-.856738,.649241,.049655-.026291,1.470414-.147747,1.904791-.058016,.207489-.116571,.419628-.104207,.63472,.011923,.207407,.089083,.40476,.16531,.59802,.402554,1.020598,.805108,2.041195,1.207662,3.061793,.340595,.863514,1.064545,2.020233,1.064545,2.944847-.269172,.313057-.533542,.630428-.809494,.937394-.142135,.158105-.88992,.237875-1.0573,.105837-.159189-.125571-.28181-.296787-.437984-.42699-.349343-.291259-.697705-.586329-1.069106-.847695-.297512-.209367-.627413-.373077-.944694-.553967-.467305-.26642-.984719-.472945-1.387505-.814806-.273644-.232251-.464586-.633649-.553237-.993675-.109927-.446416-.036222-.927496,.142985-1.36496,.110189-.268985,.268263-.518274,.401837-.777951,.010984-.021353,.009028-.063524-.005325-.079812-.014861-.016863-.05885-.027411-.078589-.017596-.162325,.080705-.341489,.142942-.47903,.255404-.585239,.478523-.903056,1.087969-.868693,1.862333,.003687,.08309-.042898,.191205-.103006,.250223-1.440186,1.414064-2.343641,3.24137-1.647079,5.288035,.041723,.122592,.0932,.249838,.195928,.328684,.117096,.089873,.275358,.098241,.422893,.102953,.398259,.012721,1.99053-.181001,2.246004,.135896,.156012,.193526,.288241,.408289,.457797,.588319,.232798,.247177,.21846,.672043,.069828,.935928-.28319,.502782-.552296,1.013504-.836607,1.515636-.221695,.391557-.446415,.782277-.690162,1.160242-.260281,.403601-.566656,.778568-.812251,1.190271-.269755,.452204-.696795,.629313-1.159164,.772507-.207276,.06419-.413095,.133202-.62101,.195216-.196987,.058755-.395733,.11164-.593922,.166332-.198647,.054818-.397838,.107694-.596285,.16322-.232617,.065085-.464477,.132871-.697057,.198087-.236251,.06624-.470665,.141977-.710433,.191563-.129329,.026751-.268855,.013973-.401862,.000324-.015699-.001611-.033964-.123985-.025148-.186746,.016014-.113987,.044796-.227401,.080183-.337208,.089404-.277436,.19201-.55073,.277142-.829405,.106044-.347124,.180992-.705151,.309583-1.043183,.042765-.112415,.198404-.216093,.323245-.252523,.103297-.030144,.244199,.028136,.356297,.075785,.380647,.161805,1.195729,.030432,1.472662-.270519,.291259-.316516,.567675-.647416,.837535-.982523,.113518-.140969,.193561-.308872,.299337-.481713-.06511,0-.109326-.010206-.146604,.001555-.449628,.14186-.890668,.32141-1.349125,.421992-.505377,.110875-1.024921,.168651-1.54144,.212491-.254872,.021633-.51737-.035581-.775384-.065896-.159849-.018778-.317098-.058935-.476726-.080531-.164953-.022313-.354746-.269768-.488108,.046813-.002619,.006225-.014416,.00829-.021479,.012978-1.328316,.881896-2.657198,1.76294-3.984421,2.646475-.319231,.212514-.686509,.391368-.782562,.809436-.132054,.574747-.228952,1.157657-.36511,1.731331-.071159,.299808-.019447,.65331-.34342,.861354-.47776,.3068-.952453,.618827-1.418752,.942593-.08741,.060686-.163334,.179509-.185972,.284165-.074062,.342407-.35324,.609279-.699058,.612345-.307551,.00273-.558966-.122699-.692308-.408243-.134343-.287695-.109491-.57907,.105528-.81977,.192527-.215528,.441508-.294351,.737141-.227952,.088813,.019949,.209964-.000551,.286987-.049043,.383746-.241606,.752589-.506946,1.137414-.746715,.178513-.111221,.292014-.235015,.333909-.45209,.090469-.468755,.210253-.931856,.327158-1.436618-.070258,.041598-.105694,.060482-.138987,.082595-2.896215,1.92347-5.792684,3.846567-8.685934,5.774486-.072983,.048636-.138119,.143575-.159721,.228864-.104867,.414042-.458211,.660629-.862199,.584265-.357286-.067538-.648652-.457638-.599017-.802003,.061368-.425766,.383067-.682458,.808601-.652647,.117791,.00825,.266888,.042634,.351034-.012343,1.374304-.897905,2.739477-1.809759,4.108988-2.71502,.53654-.35466,1.035241-.729783,1.373784-1.30945,.19948-.341557,.493485-.658494,.813432-.893297,.845813-.620727,1.710762-1.220233,2.604509-1.768911,.479326-.29426,.759344-.641401,.741015-1.208658-.023612,.012908-.056852,.027996-.086866,.047935-2.163806,1.437707-4.32755,2.875511-6.489342,4.316242-.037617,.025073-.067849,.083692-.073838,.130223-.058811,.456944-.358335,.706357-.840896,.693307-.29987-.00811-.622599-.324893-.638711-.626949-.024941-.467606,.229834-.840425,.677261-.819748,.34431,.015911,.603389-.055712,.855526-.259783,.396413-.320835,.819368-.613055,1.186539-.963967,.16571-.15837,.183925-.4647,.340428-.640361,.256463-.287854,.546425-.560516,.865391-.775701,1.932754-1.303904,3.877478-2.590091,5.820193-3.879198,.046621-.030938,.124402-.051591,.174184-.035475,.507174,.164185,.931511-.141454,.914511-.665593-.010068-.310241-.304513-.597546-.614454-.599549-.356602-.002305-.66436,.258097-.695789,.55859-.010374,.099158-.07657,.216418-.154427,.279677-.170126,.138233-.364684,.246255-.548214,.368199-1.204162,.800089-2.407901,1.600814-3.612119,2.400816-.285911,.189937-.573128,.377909-.874136,.576269,.037278-.441476,.062373-.854511,.112576-1.264474,.015578-.127211,.064833-.293593,.157585-.360846,.497214-.360507,1.012162-.696688,1.524064-1.036634,.042237-.028049,.112311-.040543,.161216-.02805,.373519,.095403,.710654-.101911,.809494-.481414,.077189-.29637-.138815-.649657-.446039-.72952-.368099-.09569-.695679,.097956-.794219,.462673-.021521,.079653-.046742,.18294-.105912,.223972-.567992,.39388-1.146329,.772859-1.714181,1.166937-.085413,.059276-.177018,.168623-.189262,.264566-.072089,.564818-.125486,1.132164-.176925,1.699407-.02639,.291017-.079176,.568666-.335559,.749011-.267062,.187857-.544224,.361341-.816386,.541988-1.454716,.965556-2.909569,1.930903-4.363598,2.89749-.33091,.219979-.697962,.411617-.790901,.849702-.130164,.613566-.245417,1.23035-.380792,1.84272-.054469,.246384-.03011,.52469-.292996,.697012-.85109,.557894-1.70186,1.116791-2.539045,1.695132-.369407,.255198-.844876,.38816-.970615,.944299-.038928,.172172-.382714,.275473-.586922,.410307h-.051024c-.02262-.009722-.044401-.024512-.067985-.028407-.454099-.0751-.721258-.455421-.635429-.906291,.070308-.369339,.509243-.628396,.908399-.551052,.089098,.017271,.208611,.006033,.281678-.041706,1.040384-.679675,2.075368-1.367612,3.110435-2.05539,.031927-.021216,.065931-.059015,.073344-.094438,.115203-.550467,.226169-1.101824,.341317-1.668743-.040893,.013722-.066717,.016842-.086072,.029693-.55751,.370176-1.115085,.740274-1.669522,1.115008-.032631,.022053-.052768,.081902-.055618,.125666-.027602,.423864-.411911,.737672-.846189,.686374-.370061-.043711-.685282-.436419-.637418-.794112,.060554-.452526,.442406-.739365,.868468-.663811,.098,.01738,.228268,.031358,.301621-.016938,1.780928-1.172528,3.559131-2.349274,5.330133-3.53672,.402991-.270203,.80347-.55483,1.158227-.883395,.400277-.370722,.387961-.892203,.393027-1.398959,.002535-.253667,.028837-.518835,.108288-.75755,.165587-.497513,.543911-.843955,.978942-1.097412,.406476-.236818,.303463-.637929,.470989-1.035777-.179059,.120048-.286544,.192782-.39469,.26452-2.092161,1.387808-4.185724,2.773522-6.273263,4.168241-.122162,.08162-.247997,.222669-.282276,.358687-.104557,.414881-.483348,.680947-.897483,.584482-.398706-.092871-.650995-.528354-.537303-.927454,.115534-.405558,.544311-.628849,.945048-.497968,.048209,.015746,.121296,.01545,.16073-.010718,1.494823-.991988,2.988822-1.985249,4.477982-2.985703,.26458-.177752,.529825-.382899,.578109-.724903,.046177-.327083,.216494-.564335,.470153-.737113,1.008761-.687112,2.018451-1.373566,3.046335-2.031314,.197924-.126652,.487699-.193233,.720504-.165424,.554976,.066293,1.100714,.208221,1.651183,.31443,.406815,.078493,.800166,.225141,1.193044-.118084,.340905-.297819,.751138-.516343,1.137967-.774747-.063051-.035803-.110198-.05957-.154268-.088086-.294544-.1906-.566871-.213338-.849,.046808-.166386,.15342-.373693,.265485-.572109,.379629-.071969,.041402-.17649,.061019-.257797,.045837-.551066-.102901-1.099976-.2174-1.649255-.32974-.032368-.006618-.061913-.027025-.092772-.041016,.023317-.027308,.042186-.061013,.070711-.080829,.132431-.091988,.267642-.17997,.401661-.26968,.190176-.127297,.38018-.254852,.595068-.39893-.100223-.018887-.161534-.041706-.222119-.039928-.277339,.008148-.620695-.078845-.821528,.051398-2.211855,1.434425-4.401737,2.902707-6.59715,4.362454-2.404246,1.598602-4.808403,3.19734-7.209827,4.800168-.056487,.037702-.10899,.122383-.114203,.188993-.027922,.356787-.386906,.683196-.746381,.663051-.452496-.025361-.747268-.386619-.711121-.871518,.026661-.357652,.411196-.678892,.806943-.595924,.255224,.053508,.407246-.048117,.583518-.166245,.130454-.08742,.263347-.171193,.394117-.258149,2.439108-1.621914,4.878115-3.243981,7.316968-4.866282,.24717-.164414,.493211-.330523,.77292-.518069-.484058-.151775-.921737-.291529-1.361741-.423536-.050661-.0152-.126006-.005239-.170114,.023455-.547588,.356246-1.096188,.711355-1.633744,1.082364-.179671,.124006-.417752,.184666-.459356,.476526-.060029,.421143-.472486,.666774-.892547,.57376-.400955-.088783-.638647-.51678-.525473-.946185,.096732-.367021,.525825-.59311,.914237-.489075,.06191,.016583,.149943,.020954,.198538-.010832,.710624-.464804,1.412089-.943787,2.128114-1.399979,.119437-.076096,.311578-.113663,.445767-.077849,.535005,.142778,1.063352,.312813,1.588291,.490129,.36078,.121866,.690967,.087902,1.005523-.120039,.73968-.488972,1.479034-.978445,2.217735-1.468894,.258064-.171338,.513832-.346131,.770623-.519348-.54982-.069786-1.214104,.145722-1.749938,.261147-.600009,.129249-1.195207,.27955-1.792982,.418516-1.113068,.258757-2.246254,.480171-3.388687,.453285-.901254-.02121-1.81438-.20477-2.617729-.624537-.220838-.115392-.857173-.385946-.428489-.579687,.230697-.104262,.57168-.013969,.818983-.035099,.744602-.063618,1.483518-.193848,2.204892-.389072,1.188127-.32154,2.339442-.820461,3.564687-.937953,.156988-.015054,.694392-.030643,.521604-.267592-.086723-.118926-.480883-.124112-.61474-.125602-1.831351-.020383-3.632522,.426872-5.453834,.619448s-3.77237,.09895-5.314441-.889118c-.70215-.449896-1.285467-1.065596-1.786612-1.732137-.134057-.1783-.329558-.516158-.002822-.55265,.192658-.021517,.426255,.196359,.598693,.262814,.666137,.256721,1.360428,.440434,2.066493,.545991,2.172144,.324735,4.378584-.09022,6.574005-.151767,.244122-.006844,.680246,.043186,.86957-.110332,.08092-.065616-1.085727-.258935-1.137879-.265552-.574139-.072844-1.149832-.132403-1.725633-.19033-1.151319-.115826-2.304535-.221526-3.447929-.402742-1.905623-.302022-3.812262-.827344-5.427768-1.882217-2.390456-1.56089-3.976255-4.251457-4.307558-7.087105-.001074-.00919-.002038-.018195-.002894-.027018Z" fill="url(#b)"/>
    <path d="M4.68132,10.191031c.480435,.159977,.780557,.73806,1.146497,1.064479,.4481,.399707,.917615,.775573,1.407468,1.122916,.977489,.693113,2.036807,1.273367,3.157653,1.69923,2.071268,.786975,4.304966,1.038694,6.516901,1.16841,1.940039,.113772,4.008116,.177525,5.606505,1.282834,.065138,.045044,.11479,.087143,.126345,.16414-.2927,.226565-.977297,.076308-1.33811,.075548-.578747-.001219-1.157469,.006382-1.736125,.015832-1.127357,.018411-2.254772,.046441-3.382366,.037436-2.255175-.018009-4.534466-.184676-6.69562-.871742-1.472924-.468267-2.930451-1.224388-3.80124-2.501307-.333784-.48946-.567498-1.038769-.733798-1.605691-.125159-.426673-.419276-1.240339-.274109-1.652086Z" fill="url(#c)"/>
    <path d="M32.541889,32.470131c.232072-.0337,.508022,.095058,.707328,.175012,.066033,.02649,.141735,.064678,.151796,.135111,.007052,.049363-.022055,.095882-.049887,.137255-.270894,.402687-.541788,.805374-.812682,1.20806-.155378,.230971-.248691,.344422-.538913,.312205-.238367-.026461-.456238-.145077-.686391-.203939-.466471-.119301,.065216-.558763,.220755-.744236,.248399-.296203,.499485-.590153,.753216-.881802,.072046-.082813,.159732-.123864,.254777-.137666Z" fill="url(#d)"/>
    <path d="M37.753293,26.452597c.002603-.001936,.005191-.003925,.007764-.005968,.421541,.158509,.87522,.221584,1.29177,.392779,.326006,.133983,.969305,.54444,.887543,.970764-.600358,.001435-1.205459-.109649-1.811339-.106032-.296108,.001767-.625094,.01595-.702059-.33188-.039158-.176968-.074554-.354769-.106161-.53327-.067084-.378877,.217353-.226345,.432482-.386394Z" fill="url(#e)"/>
  </g>
</svg>