<?xml version="1.0" encoding="UTF-8"?>
<svg id="Layer_1" data-name="Layer 1" xmlns="http://www.w3.org/2000/svg" xmlns:xlink="http://www.w3.org/1999/xlink" viewBox="0 0 819 840">
  <defs>
    <style>
      .cls-1 {
        fill: url(#Sky-3);
      }

      .cls-2 {
        fill: url(#Sky-2);
      }

      .cls-3 {
        fill: url(#Sky-4);
      }

      .cls-4 {
        fill: url(#Sky);
      }
    </style>
    <linearGradient id="Sky" x1="10" y1="415.85" x2="809.52" y2="415.85" gradientUnits="userSpaceOnUse">
      <stop offset="0" stop-color="#cce0f4"/>
      <stop offset=".06" stop-color="#c2dcf2"/>
      <stop offset=".17" stop-color="#a9d2ee"/>
      <stop offset=".31" stop-color="#7fc2e7"/>
      <stop offset=".46" stop-color="#46abdd"/>
      <stop offset=".57" stop-color="#1e9cd7"/>
      <stop offset=".87" stop-color="#0075be"/>
      <stop offset=".99" stop-color="#005b97"/>
    </linearGradient>
    <linearGradient id="Sky-2" data-name="Sky" x1="75.06" y1="163.24" x2="396.62" y2="163.24" xlink:href="#Sky"/>
    <linearGradient id="Sky-3" data-name="Sky" x1="548.16" y1="519.57" x2="588.83" y2="519.57" xlink:href="#Sky"/>
    <linearGradient id="Sky-4" data-name="Sky" x1="658.65" y1="406.57" x2="705.75" y2="406.57" xlink:href="#Sky"/>
  </defs>
  <path class="cls-4" d="M10.09,139.14c-.85-8.75,4.21-7.46,8.53-3,6.31,6.53,12,14.06,18.85,20.43,11.51,10.71,23.86,20.52,36.88,29.33,26.04,17.62,54.79,31.27,84.96,40.13,4.53,1.33,9.08,2.55,13.67,3.66,46,11.15,93.66,11.31,140.71,10.63,41.45-.6,89.85-7.17,128.68,10.43,23.24,10.54,41.55,29.96,54.96,51.67,7.81,12.64,14.12,26.12,19.78,39.83,2.84,6.88,5.5,13.83,8.12,20.79,.7,1.86,7,15.35,6.28,16.88,6.75-14.34,5.24-31.43,1.06-46.27-2.25-7.99-5.43-15.75-9.46-23.01-3.19-5.74-9.1-11.46-11.11-17.7-.94-2.92,1.18-2.86,3.56-3.12,2.58-.28,5.18-.29,7.76-.35,17.02-.44,34.07-2.89,50.19-8.39,15.22-5.19,33.08-13.69,43.68-26.22-1.17-.63-2.19-.2-3.36,.17-8.46,2.69-16.9,5.48-25.43,7.93-6.7,1.92-13.46,3.71-20.31,4.98-5.12,.95-10.4,1.2-15.62,1.39-6.3,.22-12.61,.23-18.91-.01-3.85-.15-7.75-.62-11.5-1.5-5.92-1.39-11.83-2.96-17.56-4.97-5.04-1.77-10.04-3.87-14.67-6.51-5.34-3.05-10.48-6.56-15.26-10.42-3.32-2.68-5.89-6.28-8.8-9.47,22.94,2.89,45.24,3.45,67.76-2.92-.79,.22-4.04-2.21-4.82-2.65-1.66-.93-3.32-1.86-5-2.77-3.29-1.79-6.62-3.51-10.09-4.92-6.93-2.83-14.37-4.2-21.8-2.75-1.55,.3-3.07,.71-4.57,1.22-1.61,.54-3.27,1.59-4.89,1.93,.88-2.66,4.25-5.42,6.43-7.08,2.62-2,5.64-3.51,8.87-4.23,7.3-1.63,14.83,.74,21.94,3.07,8.67,2.85,17.34,5.7,26.01,8.56,2.01,.66,4.05,1.33,6.16,1.4,3.48,.12,8.15-2.22,8.09-6.23-.04-2.28-1.88-4.22-4-5.08s-4.47-.85-6.76-.81c-13.16,.2-26.65,.9-39.16-3.18-3.72-1.21-7.29-2.84-10.77-4.61-.63-.32-4.85-2.11-4.57-2.82,.39-1.01,4.95,.33,5.7,.51,11.26,2.74,22.99,3.21,34.55,2.36,15.22-1.11,30.86-4.43,45.48-.07,3.39,1.01,6.65,2.42,10.09,3.26,2.77,.68,5.63-.07,7.36-2.45,.14-.19,.27-.4,.29-.63,.02-.24-.08-.46-.18-.68-.76-1.55-2.06-2.87-3.67-3.52-1.59-.64-3.36-.59-5.07-.57-9.58,.11-19.13-.99-28.64-2.09-2.86-.33-5.73-.66-8.59-.99-1.74-.2-5.47-.55-6.03-2.52,5.67-.58,11.8,.29,17.54,.18,6.07-.11,12.15-.42,18.2-.94,10.86-.93,22.23-2.44,32.34,1.64,2.81,1.14,5.45,2.68,8.28,3.77,2.78,1.07,5.7,1.58,8.66,.98,2.01-.4-1.57-3.51-2.16-3.91-1.85-1.27-4.08-1.95-6.22-2.56-6.11-1.75-12.24-3.5-18.51-4.63-6.17-1.11-12.1-.64-18.26-1.07,.24-.33,.56-.51,.92-.73,10.27-6.29,21.97-8.28,33.8-6.14,9.57,1.73,18.6,5.59,27.53,9.42,24.05,10.31,48.1,20.62,72.15,30.92,2.82,1.21,5.73,2.43,8.8,2.41,3.03-.02,5.9-1.27,8.67-2.5,8.79-3.89,22.97-16.06,32.83-15.3,11.6,.89-.47,26.27-2.64,34.03-1.04,3.71-2.08,7.5-1.86,11.34,.21,3.71,1.59,7.23,2.95,10.68,7.19,18.23,14.38,36.46,21.57,54.7,6.08,15.43,19.02,36.09,19.02,52.61-4.81,5.59-9.53,11.26-14.46,16.75-2.54,2.82-15.9,4.25-18.89,1.89-2.84-2.24-5.03-5.3-7.82-7.63-6.24-5.2-12.46-10.47-19.1-15.14-5.31-3.74-11.21-6.66-16.88-9.9-8.35-4.76-17.59-8.45-24.79-14.56-4.89-4.15-8.3-11.32-9.88-17.75-1.96-7.97-.65-16.57,2.55-24.38,1.97-4.81,4.79-9.26,7.18-13.9,.2-.38,.16-1.13-.1-1.43-.27-.3-1.05-.49-1.4-.31-2.9,1.44-6.1,2.55-8.56,4.56-10.45,8.55-16.13,19.44-15.52,33.27,.07,1.48-.77,3.42-1.84,4.47-25.73,25.26-41.87,57.9-29.42,94.46,.75,2.19,1.66,4.46,3.5,5.87,2.09,1.61,4.92,1.75,7.55,1.84,7.11,.23,35.56-3.23,40.12,2.43,2.79,3.46,5.15,7.29,8.18,10.51,4.16,4.42,3.9,12.01,1.25,16.72-5.06,8.98-9.87,18.11-14.95,27.08-3.96,6.99-7.97,13.97-12.33,20.73-4.65,7.21-10.12,13.91-14.51,21.26-4.82,8.08-12.45,11.24-20.71,13.8-3.7,1.15-7.38,2.38-11.09,3.49-3.52,1.05-7.07,1.99-10.61,2.97-3.55,.98-7.11,1.92-10.65,2.92-4.16,1.16-8.3,2.37-12.45,3.54-4.22,1.18-8.41,2.54-12.69,3.42-2.31,.48-4.8,.25-7.18,0-.28-.03-.61-2.21-.45-3.34,.29-2.04,.8-4.06,1.43-6.02,1.6-4.96,3.43-9.84,4.95-14.82,1.89-6.2,3.23-12.6,5.53-18.64,.76-2.01,3.54-3.86,5.77-4.51,1.85-.54,4.36,.5,6.36,1.35,6.8,2.89,21.36,.54,26.31-4.83,5.2-5.65,10.14-11.57,14.96-17.55,2.03-2.52,3.46-5.52,5.35-8.61-1.16,0-1.95-.18-2.62,.03-8.03,2.53-15.91,5.74-24.1,7.54-9.03,1.98-18.31,3.01-27.54,3.8-4.55,.39-9.24-.64-13.85-1.18-2.86-.34-5.66-1.05-8.52-1.44-2.95-.4-6.34-4.82-8.72,.84-.05,.11-.26,.15-.38,.23-23.73,15.75-47.47,31.49-71.18,47.28-5.7,3.8-12.26,6.99-13.98,14.46-2.36,10.27-4.09,20.68-6.52,30.93-1.27,5.36-.35,11.67-6.13,15.39-8.53,5.48-17.01,11.05-25.34,16.84-1.56,1.08-2.92,3.21-3.32,5.08-1.32,6.12-6.31,10.88-12.49,10.94-5.49,.05-9.99-2.19-12.37-7.29-2.4-5.14-1.96-10.34,1.89-14.64,3.44-3.85,7.89-5.26,13.17-4.07,1.59,.36,3.75,0,5.13-.88,6.86-4.32,13.44-9.06,20.32-13.34,3.19-1.99,5.22-4.2,5.96-8.08,1.62-8.37,3.76-16.65,5.84-25.66-1.26,.74-1.89,1.08-2.48,1.48-51.74,34.36-103.48,68.71-155.16,103.15-1.3,.87-2.47,2.56-2.85,4.09-1.87,7.4-8.19,11.8-15.4,10.44-6.38-1.21-11.59-8.18-10.7-14.33,1.1-7.61,6.84-12.19,14.44-11.66,2.1,.15,4.77,.76,6.27-.22,24.55-16.04,48.94-32.33,73.4-48.5,9.58-6.34,18.49-13.04,24.54-23.39,3.56-6.1,8.82-11.76,14.53-15.96,15.11-11.09,30.56-21.8,46.53-31.6,8.56-5.26,13.56-11.46,13.24-21.59-.42,.23-1.02,.5-1.55,.86-38.65,25.68-77.31,51.37-115.92,77.1-.67,.45-1.21,1.5-1.32,2.33-1.05,8.16-6.4,12.62-15.02,12.39-5.36-.14-11.12-5.8-11.41-11.2-.45-8.35,4.11-15.01,12.1-14.64,6.15,.28,10.78-1,15.28-4.64,7.08-5.73,14.64-10.95,21.2-17.22,2.96-2.83,3.29-8.3,6.08-11.44,4.58-5.14,9.76-10.01,15.46-13.86,34.53-23.29,69.27-46.27,103.97-69.3,.83-.55,2.22-.92,3.11-.63,9.06,2.93,16.64-2.53,16.34-11.89-.18-5.54-5.44-10.67-10.98-10.71-6.37-.04-11.87,4.61-12.43,9.98-.19,1.77-1.37,3.87-2.76,5-3.04,2.47-6.51,4.4-9.79,6.58-21.51,14.29-43.01,28.6-64.53,42.89-5.11,3.39-10.24,6.75-15.62,10.29,.67-7.89,1.11-15.26,2.01-22.59,.28-2.27,1.16-5.24,2.82-6.45,8.88-6.44,18.08-12.45,27.23-18.52,.75-.5,2.01-.72,2.88-.5,6.67,1.7,12.7-1.82,14.46-8.6,1.38-5.29-2.48-11.61-7.97-13.03-6.58-1.71-12.43,1.75-14.19,8.27-.38,1.42-.83,3.27-1.89,4-10.15,7.04-20.48,13.81-30.62,20.85-1.53,1.06-3.16,3.01-3.38,4.73-1.29,10.09-2.24,20.22-3.16,30.36-.47,5.2-1.41,10.16-5.99,13.38-4.77,3.36-9.72,6.45-14.58,9.68-25.99,17.25-51.98,34.49-77.95,51.76-5.91,3.93-12.47,7.35-14.13,15.18-2.33,10.96-4.38,21.98-6.8,32.92-.97,4.4-.54,9.37-5.23,12.45-15.2,9.97-30.4,19.95-45.36,30.28-6.6,4.56-15.09,6.93-17.34,16.87-.7,3.08-6.84,4.92-10.48,7.33h-.91c-.4-.17-.79-.44-1.21-.51-8.11-1.34-12.88-8.14-11.35-16.19,1.26-6.6,9.1-11.23,16.23-9.84,1.59,.31,3.73,.11,5.03-.75,18.59-12.14,37.07-24.43,55.56-36.72,.57-.38,1.18-1.05,1.31-1.69,2.06-9.83,4.04-19.68,6.1-29.81-.73,.25-1.19,.3-1.54,.53-9.96,6.61-19.92,13.22-29.82,19.92-.58,.39-.94,1.46-.99,2.24-.49,7.57-7.36,13.18-15.12,12.26-6.61-.78-12.24-7.8-11.39-14.19,1.08-8.08,7.9-13.21,15.51-11.86,1.75,.31,4.08,.56,5.39-.3,31.81-20.95,63.58-41.97,95.22-63.18,7.2-4.83,14.35-9.91,20.69-15.78,7.15-6.62,6.93-15.94,7.02-24.99,.05-4.53,.52-9.27,1.93-13.53,2.96-8.89,9.72-15.08,17.49-19.6,7.26-4.23,5.42-11.4,8.41-18.5-3.2,2.14-5.12,3.44-7.05,4.73-37.37,24.79-74.77,49.55-112.06,74.46-2.18,1.46-4.43,3.98-5.04,6.41-1.87,7.41-8.63,12.16-16.03,10.44-7.12-1.66-11.63-9.44-9.6-16.57,2.06-7.24,9.72-11.23,16.88-8.9,.86,.28,2.17,.28,2.87-.19,26.7-17.72,53.39-35.46,79.99-53.34,4.73-3.18,9.46-6.84,10.33-12.95,.82-5.84,3.87-10.08,8.4-13.17,18.02-12.27,36.06-24.54,54.42-36.29,3.54-2.26,8.71-3.45,12.87-2.96,9.91,1.18,19.66,3.72,29.5,5.62,7.27,1.4,14.29,4.02,21.31-2.11,6.09-5.32,13.42-9.22,20.33-13.84-1.13-.64-1.97-1.06-2.76-1.57-5.26-3.4-10.13-3.81-15.17,.84-2.97,2.74-6.68,4.74-10.22,6.78-1.29,.74-3.15,1.09-4.61,.82-9.84-1.84-19.65-3.88-29.46-5.89-.58-.12-1.11-.48-1.66-.73,.42-.49,.75-1.09,1.26-1.44,2.37-1.64,4.78-3.21,7.18-4.82,3.4-2.27,6.79-4.55,10.63-7.13-1.79-.34-2.89-.75-3.97-.71-4.95,.15-11.09-1.41-14.68,.92-39.51,25.62-78.63,51.85-117.85,77.93-42.95,28.56-85.9,57.12-128.8,85.75-1.01,.67-1.95,2.19-2.04,3.38-.5,6.37-6.91,12.2-13.33,11.84-8.08-.45-13.35-6.91-12.7-15.57,.48-6.39,7.35-12.13,14.42-10.65,4.56,.96,7.27-.86,10.42-2.97,2.33-1.56,4.7-3.06,7.04-4.61,43.57-28.97,87.14-57.95,130.71-86.93,4.42-2.94,8.81-5.9,13.81-9.25-8.65-2.71-16.47-5.21-24.33-7.57-.91-.27-2.25-.09-3.04,.42-9.78,6.36-19.58,12.71-29.19,19.34-3.21,2.22-7.46,3.3-8.21,8.51-1.07,7.52-8.44,11.91-15.94,10.25-7.16-1.59-11.41-9.23-9.39-16.9,1.73-6.56,9.39-10.6,16.33-8.74,1.11,.3,2.68,.37,3.55-.19,12.69-8.3,25.23-16.86,38.02-25.01,2.13-1.36,5.57-2.03,7.96-1.39,9.56,2.55,19,5.59,28.37,8.76,6.44,2.18,12.34,1.57,17.96-2.14,13.21-8.73,26.42-17.48,39.62-26.24,4.61-3.06,9.18-6.18,13.77-9.28-9.82-1.25-21.69,2.6-31.26,4.67-10.72,2.31-21.35,4.99-32.03,7.48-19.88,4.62-40.13,8.58-60.54,8.1-16.1-.38-32.41-3.66-46.76-11.16-3.95-2.06-15.31-6.89-7.65-10.36,4.12-1.86,10.21-.25,14.63-.63,13.3-1.14,26.5-3.46,39.39-6.95,21.22-5.74,41.79-14.66,63.68-16.76,2.8-.27,12.4-.55,9.32-4.78-1.55-2.12-8.59-2.22-10.98-2.24-32.72-.36-64.89,7.63-97.43,11.07-32.54,3.44-67.39,1.77-94.94-15.88-12.54-8.04-22.96-19.04-31.92-30.94-2.39-3.19-5.89-9.22-.05-9.87,3.44-.38,7.61,3.51,10.69,4.69,11.9,4.59,24.3,7.87,36.92,9.75,38.8,5.8,78.22-1.61,117.44-2.71,4.36-.12,12.15,.77,15.53-1.97,1.45-1.17-19.4-4.63-20.33-4.74-10.26-1.3-20.54-2.37-30.83-3.4-20.57-2.07-41.17-3.96-61.59-7.19-34.04-5.4-68.1-14.78-96.96-33.62C44.39,238.34,16.06,190.28,10.15,139.62c-.02-.16-.04-.33-.05-.48Z"/>
  <path class="cls-2" d="M75.76,104c8.58,2.86,13.94,13.18,20.48,19.02,8,7.14,16.39,13.85,25.14,20.06,17.46,12.38,36.39,22.75,56.41,30.35,37,14.06,76.9,18.56,116.42,20.87,34.66,2.03,71.6,3.17,100.15,22.92,1.16,.8,2.05,1.56,2.26,2.93-5.23,4.05-17.46,1.36-23.9,1.35-10.34-.02-20.68,.11-31.01,.28-20.14,.33-40.28,.83-60.42,.67-40.29-.32-81-3.3-119.61-15.57-26.31-8.37-52.35-21.87-67.9-44.68-5.96-8.74-10.14-18.56-13.11-28.68-2.24-7.62-7.49-22.16-4.9-29.51Z"/>
  <path class="cls-1" d="M573.46,501.99c4.15-.6,9.08,1.7,12.64,3.13,1.18,.47,2.53,1.16,2.71,2.41,.13,.88-.39,1.71-.89,2.45-4.84,7.19-9.68,14.39-14.52,21.58-2.78,4.13-4.44,6.15-9.63,5.58-4.26-.47-8.15-2.59-12.26-3.64-8.33-2.13,1.17-9.98,3.94-13.29,4.44-5.29,8.92-10.54,13.46-15.75,1.29-1.48,2.85-2.21,4.55-2.46Z"/>
  <path class="cls-3" d="M666.56,394.49s.09-.07,.14-.11c7.53,2.83,15.63,3.96,23.08,7.02,5.82,2.39,17.32,9.73,15.85,17.34-10.72,.03-21.53-1.96-32.36-1.89-5.29,.03-11.17,.28-12.54-5.93-.7-3.16-1.33-6.34-1.9-9.53-1.2-6.77,3.88-4.04,7.73-6.9Z"/>
</svg>